<?xml version="1.0" standalone="no"?>
<!DOCTYPE svg PUBLIC "-//W3C//DTD SVG 20010904//EN"
 "http://www.w3.org/TR/2001/REC-SVG-20010904/DTD/svg10.dtd">
<svg version="1.0" xmlns="http://www.w3.org/2000/svg"
 width="1254.000000pt" height="1254.000000pt" viewBox="0 0 1254.000000 1254.000000"
 preserveAspectRatio="xMidYMid meet">

<g transform="translate(0.000000,1254.000000) scale(0.100000,-0.100000)"
fill="#000000" stroke="none">
<path d="M6124 11751 c-17 -10 -111 -64 -210 -119 -98 -54 -294 -164 -434
-242 -305 -170 -738 -411 -945 -525 -82 -46 -296 -163 -475 -262 -179 -98
-495 -271 -702 -383 -208 -113 -378 -207 -378 -210 0 -3 100 -56 223 -117 285
-145 1142 -592 1542 -805 429 -229 626 -331 629 -327 2 2 31 112 66 244 34
132 90 348 125 480 35 132 134 506 220 830 86 325 187 707 225 850 38 143 78
298 89 345 11 47 31 124 45 173 13 48 21 87 18 87 -4 0 -21 -9 -38 -19z"/>
<path d="M6404 11753 c4 -9 16 -58 28 -108 11 -49 42 -180 69 -290 47 -194 64
-259 222 -850 66 -245 160 -602 352 -1330 96 -366 110 -415 118 -415 7 0 235
119 697 365 85 45 202 107 260 137 370 194 879 459 1142 595 248 129 303 161
290 170 -19 11 -416 232 -847 471 -392 217 -2326 1272 -2332 1272 -3 0 -2 -8
1 -17z"/>
<path d="M6161 11013 c-5 -21 -40 -153 -76 -293 -111 -428 -251 -961 -325
-1240 -172 -651 -212 -812 -204 -819 5 -5 147 -79 317 -165 l307 -157 0 1355
c0 746 -2 1356 -5 1356 -2 0 -9 -17 -14 -37z"/>
<path d="M6388 11024 c-9 -8 -11 -2684 -2 -2684 19 0 624 317 624 327 0 16
-165 658 -295 1148 -57 215 -120 453 -140 529 -19 77 -56 216 -82 310 -25 94
-57 217 -72 274 -14 57 -29 100 -33 96z"/>
<path d="M2900 8101 l0 -1643 103 55 c56 30 152 81 212 114 61 33 328 178 595
323 267 145 537 291 600 325 63 35 115 68 115 74 0 19 -1458 2172 -1592 2350
l-33 44 0 -1642z"/>
<path d="M9550 9579 c-155 -219 -378 -546 -925 -1354 -67 -99 -175 -259 -241
-355 -310 -458 -354 -524 -347 -531 5 -4 67 -38 138 -77 161 -86 471 -255 892
-485 409 -224 593 -320 599 -315 2 3 3 741 2 1642 l-3 1637 -115 -162z"/>
<path d="M9310 9664 c-47 -25 -245 -129 -440 -231 -195 -102 -449 -236 -565
-298 -115 -62 -284 -152 -375 -200 -91 -48 -230 -122 -310 -165 -80 -42 -199
-105 -265 -140 -66 -35 -121 -64 -122 -65 -3 -2 188 -739 223 -862 15 -51 18
-54 92 -94 42 -23 129 -70 193 -105 64 -35 119 -64 122 -64 3 0 115 162 249
360 571 845 1105 1632 1210 1782 45 65 79 120 77 122 -3 3 -43 -16 -89 -40z"/>
<path d="M3170 9694 c0 -4 73 -113 163 -243 154 -222 509 -745 892 -1314 349
-517 448 -662 465 -681 17 -18 24 -15 206 84 104 56 190 102 191 103 4 4 242
921 240 923 -1 0 -180 94 -397 209 -686 361 -771 406 -930 490 -172 92 -721
380 -787 414 -24 12 -43 19 -43 15z"/>
<path d="M5477 8398 c-9 -40 -48 -194 -86 -343 -38 -148 -67 -272 -65 -274 3
-3 681 350 722 377 13 8 19 18 15 23 -9 8 -557 289 -565 289 -3 0 -12 -33 -21
-72z"/>
<path d="M6979 8432 c-364 -189 -489 -254 -489 -257 0 -3 169 -94 553 -297
104 -55 190 -98 192 -97 5 6 -169 689 -176 689 -3 0 -39 -17 -80 -38z"/>
<path d="M6060 7947 c-148 -77 -804 -428 -808 -431 -3 -4 -27 -95 -100 -386
-33 -129 -63 -242 -66 -250 -4 -10 11 -39 38 -76 24 -34 200 -295 390 -580
190 -286 417 -625 503 -754 l158 -235 3 698 c1 384 1 1008 0 1386 l-3 688
-115 -60z"/>
<path d="M6380 6624 c0 -763 2 -1385 4 -1383 2 2 217 324 478 714 261 391 505
754 541 807 37 53 67 101 67 105 0 24 -162 638 -171 649 -8 10 -716 392 -886
478 l-33 17 0 -1387z"/>
<path d="M4915 7334 c-55 -29 -100 -56 -100 -61 0 -12 118 -193 126 -193 7 0
84 300 78 303 -2 2 -49 -21 -104 -49z"/>
<path d="M7540 7375 c0 -8 16 -79 35 -156 19 -78 35 -144 35 -147 0 -7 27 30
91 121 51 75 53 79 34 90 -119 70 -195 106 -195 92z"/>
<path d="M4315 7009 c-170 -94 -411 -226 -535 -293 -124 -68 -355 -194 -515
-281 -159 -86 -294 -160 -298 -165 -5 -4 81 -56 190 -115 109 -59 452 -248
763 -421 311 -172 572 -316 582 -319 13 -5 18 3 26 37 11 45 160 628 282 1101
l72 279 -67 96 c-37 54 -90 132 -118 174 -29 43 -56 77 -62 77 -5 0 -149 -77
-320 -170z"/>
<path d="M7885 7133 c-16 -25 -69 -103 -119 -172 -49 -69 -89 -130 -89 -136 0
-5 40 -163 87 -350 146 -568 204 -794 238 -929 18 -70 37 -130 43 -132 15 -6
1505 806 1543 841 12 11 -160 107 -1594 886 -39 22 -73 39 -75 39 -2 0 -17
-21 -34 -47z"/>
<path d="M5006 6558 c-12 -42 -175 -680 -297 -1163 -20 -76 -20 -80 -2 -93 10
-7 110 -63 223 -124 211 -114 507 -277 970 -532 145 -80 268 -146 272 -146 5
0 8 85 8 188 l0 188 -53 85 c-30 46 -189 287 -354 534 -165 248 -397 597 -517
777 -119 180 -221 330 -226 333 -5 3 -16 -18 -24 -47z"/>
<path d="M6984 5798 c-298 -447 -555 -836 -573 -864 l-31 -51 2 -195 3 -195
185 102 c102 56 277 152 390 214 113 62 354 194 535 293 182 100 340 187 352
194 l21 13 -118 468 c-65 257 -139 548 -164 645 -25 98 -46 180 -46 183 0 3
-4 5 -8 5 -4 0 -251 -366 -548 -812z"/>
<path d="M1905 3790 c-237 -48 -401 -243 -420 -500 -11 -152 45 -308 150 -416
107 -109 246 -161 410 -151 100 6 184 31 254 77 48 30 148 126 140 134 -2 2
-39 31 -81 63 l-78 60 -44 -43 c-111 -106 -308 -113 -428 -14 -21 18 -51 59
-70 98 -30 61 -33 74 -33 162 0 82 4 103 26 151 31 66 84 120 148 151 38 19
62 23 136 23 104 0 156 -19 224 -80 l41 -37 33 25 c17 13 52 42 77 64 44 40
44 40 27 66 -23 35 -111 101 -170 127 -98 43 -242 60 -342 40z"/>
<path d="M2981 3758 c-5 -13 -99 -243 -210 -511 -110 -269 -201 -493 -201
-498 0 -5 49 -9 113 -9 l112 0 39 100 39 100 233 0 232 0 30 -77 c16 -43 32
-88 36 -100 7 -22 12 -23 122 -23 75 0 114 4 114 11 0 6 -78 205 -174 442 -96
238 -188 466 -204 507 l-30 75 -121 3 c-118 3 -121 2 -130 -20z m207 -438 c38
-96 67 -178 66 -182 -2 -3 -69 -7 -149 -7 -113 -2 -145 1 -145 11 0 26 143
369 151 361 4 -4 39 -87 77 -183z"/>
<path d="M3787 3773 c-4 -3 -7 -237 -7 -520 l0 -513 110 0 110 0 0 335 c0 184
3 335 8 335 4 0 50 -62 102 -137 52 -75 133 -191 179 -257 47 -67 109 -156
138 -198 l54 -78 110 0 109 0 0 520 0 520 -110 0 -110 0 -2 -326 -3 -326 -230
326 -230 325 -111 1 c-61 0 -114 -3 -117 -7z"/>
<path d="M4965 3768 c-3 -7 -4 -240 -3 -518 l3 -505 108 -3 107 -3 0 336 c0
184 3 335 8 334 4 0 68 -87 142 -192 74 -106 179 -256 235 -334 l100 -143 110
3 110 2 0 515 0 515 -112 3 -113 3 -2 -326 -3 -326 -70 98 c-38 54 -124 175
-190 268 -67 94 -139 196 -161 227 l-39 58 -113 0 c-81 0 -114 -4 -117 -12z"/>
<path d="M6433 3743 c-8 -21 -74 -177 -145 -348 -159 -378 -268 -643 -268
-650 0 -3 51 -5 114 -5 l114 0 39 98 39 97 234 0 234 0 36 -95 36 -95 118 -3
c110 -2 118 -1 112 15 -4 10 -97 244 -208 521 l-200 502 -120 0 -119 0 -16
-37z m213 -416 c39 -100 69 -185 67 -189 -6 -11 -290 -10 -297 0 -6 10 147
383 154 376 3 -3 37 -87 76 -187z"/>
<path d="M7021 3718 c47 -119 110 -281 158 -408 64 -167 107 -279 169 -440
l48 -125 120 -3 121 -3 28 73 c44 115 230 586 306 775 38 95 69 175 69 178 0
3 -51 5 -112 5 l-113 0 -42 -108 c-23 -59 -87 -223 -142 -365 -56 -141 -101
-262 -101 -267 0 -25 -20 -6 -34 33 -9 23 -72 191 -140 372 l-123 330 -117 3
-116 3 21 -53z"/>
<path d="M8172 3258 l3 -513 103 -3 102 -3 0 516 0 515 -105 0 -105 0 2 -512z"/>
<path d="M8520 3670 l0 -100 150 0 150 0 0 -415 0 -416 103 3 102 3 3 412 2
412 148 3 147 3 3 98 3 97 -406 0 -405 0 0 -100z"/>
<path d="M9641 3748 c-10 -25 -52 -127 -211 -508 -108 -259 -200 -487 -200
-495 0 -3 50 -5 110 -5 110 0 111 0 120 26 6 15 24 60 41 100 l31 74 231 -2
232 -3 35 -97 35 -98 112 0 c62 0 113 2 113 4 0 4 -149 384 -306 779 l-98 247
-118 0 c-114 0 -119 -1 -127 -22z m203 -422 c36 -93 66 -175 66 -182 0 -11
-29 -14 -144 -14 -80 0 -147 3 -149 8 -4 7 51 153 115 300 17 40 34 69 38 65
4 -4 37 -84 74 -177z"/>
<path d="M10412 3258 l3 -513 333 -3 333 -2 -3 102 -3 103 -225 0 -225 0 -3
413 -2 412 -105 0 -105 0 2 -512z"/>
<path d="M7933 2226 c-141 -46 -236 -159 -265 -315 -31 -167 63 -346 220 -419
51 -24 68 -27 172 -27 103 0 121 3 170 26 30 14 75 44 100 67 l45 40 -45 46
c-24 25 -48 46 -53 46 -5 0 -27 -16 -50 -35 -77 -66 -175 -79 -274 -35 -176
78 -186 360 -16 453 98 53 203 43 296 -28 l47 -36 48 45 47 45 -35 36 c-19 20
-64 50 -99 68 -58 28 -75 32 -165 34 -65 2 -116 -2 -143 -11z"/>
<path d="M2870 1850 l0 -380 75 0 75 0 0 150 0 150 180 0 180 0 0 65 0 65
-180 0 -180 0 0 94 0 93 46 7 c26 3 116 6 200 6 l154 0 0 65 0 65 -275 0 -275
0 0 -380z"/>
<path d="M3893 2177 c-12 -28 -52 -122 -89 -207 -36 -85 -99 -233 -139 -327
l-73 -173 78 0 78 0 32 80 32 80 183 0 183 0 30 -77 29 -78 77 -3 c42 -2 76 1
76 6 0 9 -184 453 -275 665 l-37 87 -82 0 -81 0 -22 -53z m171 -257 c31 -77
56 -145 56 -150 0 -6 -49 -10 -125 -10 -74 0 -125 4 -125 10 0 9 83 214 110
272 7 15 16 25 20 23 5 -3 33 -68 64 -145z"/>
<path d="M4660 1850 l0 -380 75 0 75 0 0 120 0 121 91 -3 91 -3 71 -117 70
-118 84 0 83 0 -23 38 c-13 20 -49 75 -79 122 -30 47 -57 90 -61 96 -4 7 14
24 42 41 130 82 141 305 19 403 -64 50 -115 59 -335 60 l-203 0 0 -380z m420
225 c50 -30 68 -85 49 -146 -12 -36 -22 -48 -59 -66 -38 -20 -60 -23 -152 -23
l-108 0 0 131 0 131 118 -3 c96 -3 123 -8 152 -24z"/>
<path d="M5600 1850 l0 -380 70 0 70 0 0 253 c1 200 3 249 13 236 7 -9 57
-100 112 -203 l100 -186 39 3 c38 2 40 4 91 97 28 52 79 145 113 205 l62 110
0 -257 0 -258 70 0 70 0 0 380 0 380 -72 0 -73 -1 -51 -87 c-28 -48 -86 -149
-130 -225 -91 -159 -74 -160 -163 8 -33 61 -83 153 -113 205 l-54 95 -77 3
-77 3 0 -381z"/>
<path d="M6981 2208 c-5 -13 -41 -97 -81 -188 -86 -197 -230 -540 -230 -546 0
-3 35 -4 77 -2 l77 3 31 78 30 77 185 -2 185 -3 29 -77 29 -78 78 0 c77 0 78
0 70 23 -15 37 -116 283 -181 437 -33 80 -75 180 -93 223 l-32 77 -83 0 c-76
0 -83 -2 -91 -22z m156 -290 l61 -153 -125 -3 c-69 -1 -127 -1 -130 1 -2 2 15
49 37 103 23 54 50 123 62 152 11 28 24 52 28 52 3 0 34 -69 67 -152z"/>
<path d="M8650 1850 l0 -380 75 0 75 0 0 380 0 380 -75 0 -75 0 0 -380z"/>
<path d="M9356 2178 c-13 -29 -50 -114 -81 -188 -32 -74 -95 -222 -140 -327
l-83 -193 78 0 78 0 32 80 32 80 183 0 182 0 30 -77 30 -78 82 -3 c76 -3 81
-2 73 15 -5 10 -35 81 -67 158 -32 77 -98 235 -146 352 -49 117 -89 217 -89
223 0 6 -33 10 -86 10 l-85 0 -23 -52z m167 -256 c31 -81 57 -151 57 -155 0
-4 -57 -7 -126 -7 -124 0 -125 0 -118 22 16 53 117 288 123 288 3 0 32 -67 64
-148z"/>
</g>
</svg>
